<?xml version="1.0" standalone="no"?>
<!DOCTYPE svg PUBLIC "-//W3C//DTD SVG 20010904//EN"
 "http://www.w3.org/TR/2001/REC-SVG-20010904/DTD/svg10.dtd">
<svg version="1.0" xmlns="http://www.w3.org/2000/svg"
 width="678.000000pt" height="368.000000pt" viewBox="0 0 678.000000 368.000000"
 preserveAspectRatio="xMidYMid meet">

<g transform="translate(0.000000,368.000000) scale(0.100000,-0.100000)"
fill="#000000" stroke="none">
<path d="M3164 3486 c-17 -8 -41 -27 -52 -44 -12 -16 -176 -340 -364 -718
l-343 -689 -3 433 -2 433 -153 -3 -152 -3 -3 -287 -2 -287 -153 -3 c-83 -2
-162 -1 -174 1 l-23 3 -2 287 -3 286 -152 3 -153 3 0 -766 0 -765 155 0 155 0
0 340 0 340 173 -2 172 -3 3 -322 2 -321 -260 -522 c-203 -407 -260 -529 -260
-559 0 -50 36 -103 80 -118 27 -9 408 -12 1568 -12 1701 -1 1581 -6 1623 63
39 64 37 69 -251 646 l-270 540 1 553 c0 303 3 547 5 541 3 -7 62 -270 133
-585 l127 -574 121 -3 121 -3 21 88 c11 48 68 302 126 563 58 261 109 486 114
500 6 16 10 -196 10 -563 l1 -588 143 3 142 3 0 760 0 760 -229 0 -230 0 -41
-205 c-23 -113 -70 -344 -105 -515 -34 -170 -66 -314 -70 -318 -4 -5 -10 7
-13 25 -12 66 -198 983 -203 1001 -5 16 -25 17 -235 17 l-229 0 -2 -432 -3
-433 -354 708 c-269 537 -361 713 -383 728 -37 27 -86 33 -124 15z m706 -1717
c358 -716 650 -1305 650 -1310 0 -5 -570 -9 -1306 -9 -1138 0 -1305 2 -1302
15 6 27 1293 2604 1301 2604 4 1 300 -585 657 -1300z"/>
<path d="M3160 2690 c-28 -28 -1000 -1988 -1000 -2016 0 -13 10 -34 23 -48
l22 -26 985 0 c542 -1 995 -1 1008 0 31 0 72 43 72 74 0 35 -994 2022 -1015
2030 -32 12 -75 6 -95 -14z m476 -1083 c227 -458 414 -836 414 -840 0 -10
-1670 -9 -1671 1 0 13 826 1670 834 1671 4 1 195 -374 423 -832z"/>
<path d="M3187 2023 c-8 -10 -133 -253 -277 -540 -223 -446 -260 -525 -250
-543 11 -20 17 -20 555 -20 529 0 545 1 555 19 8 17 -34 108 -251 543 -143
288 -268 531 -277 541 -8 9 -20 17 -27 17 -7 0 -19 -8 -28 -17z m253 -573
c121 -242 220 -442 220 -445 0 -8 -890 -6 -890 3 -1 13 435 880 442 881 5 1
107 -197 228 -439z"/>
<path d="M670 2920 c-118 -16 -190 -50 -264 -126 -51 -52 -103 -164 -121 -257
-38 -202 -39 -602 -1 -797 51 -266 178 -374 452 -387 270 -13 417 78 486 302
20 66 44 266 34 290 -4 12 -30 15 -154 15 l-149 0 -11 -107 c-18 -177 -55
-248 -140 -273 -33 -10 -50 -10 -88 0 -93 26 -131 126 -143 375 -9 194 3 492
24 569 33 124 75 166 167 166 57 0 96 -19 125 -60 22 -32 43 -123 43 -192 l0
-58 155 0 155 0 0 83 c-2 332 -216 504 -570 457z"/>
<path d="M5595 2888 c-3 -7 -4 -350 -3 -763 l3 -750 152 -3 153 -3 2 303 3
303 145 6 c189 8 273 33 359 105 109 92 161 283 127 471 -34 193 -152 310
-334 334 -111 14 -602 11 -607 -3z m550 -252 c59 -31 90 -98 89 -196 0 -98
-26 -158 -85 -197 -40 -26 -49 -28 -143 -28 l-101 0 -3 222 -2 222 42 3 c84 6
163 -4 203 -26z"/>
</g>
</svg>
